# Blender 4.1.1
# www.blender.org
mtllib Nox.mtl
g Light_网格
v -213.000000 547.799988 -227.000015
v -213.000000 547.799988 -332.000000
v -343.000000 547.799988 -227.000000
v -343.000000 547.799988 -332.000000
vn -0.0000 -1.0000 -0.0000
s 0
usemtl Emitter
f 3//1 2//1 1//1
f 3//1 4//1 2//1
g large_box_网格
v -422.352661 0.000046 -247.760956
v -422.352661 330.000061 -247.761017
v -471.239044 330.000000 -405.352661
v -471.239044 0.000015 -405.352600
v -264.761017 0.000046 -296.647339
v -264.761017 330.000061 -296.647400
v -313.647400 330.000000 -454.239044
v -313.647400 0.000015 -454.238983
vn 0.2963 -0.0000 0.9551
vn -0.0000 1.0000 -0.0000
vn -0.2963 -0.0000 -0.9551
vn -0.0000 -1.0000 -0.0000
vn -0.9551 -0.0000 0.2963
vn 0.9551 -0.0000 -0.2963
s 0
usemtl box_Material
f 10//2 5//2 9//2
f 11//3 6//3 10//3
f 12//4 7//4 11//4
f 9//5 8//5 12//5
f 6//6 8//6 5//6
f 11//7 9//7 12//7
f 10//2 6//2 5//2
f 11//3 7//3 6//3
f 12//4 8//4 7//4
f 9//5 5//5 8//5
f 6//6 7//6 8//6
f 11//7 10//7 9//7
g small_box_网格
v -129.536377 0.000000 -66.353592
v -129.536377 165.000015 -66.353577
v -287.646423 165.000015 -113.536346
v -287.646423 0.000000 -113.536362
v -82.353600 0.000015 -224.463654
v -82.353600 165.000031 -224.463638
v -240.463654 165.000031 -271.646423
v -240.463654 0.000015 -271.646423
vn 0.9582 -0.0000 0.2860
vn -0.0000 1.0000 -0.0000
vn -0.9582 -0.0000 -0.2860
vn -0.0000 -1.0000 -0.0000
vn -0.2860 -0.0000 0.9582
vn 0.2860 -0.0000 -0.9582
s 0
usemtl box_Material
f 18//8 13//8 17//8
f 19//9 14//9 18//9
f 20//10 15//10 19//10
f 17//11 16//11 20//11
f 14//12 16//12 13//12
f 19//13 17//13 20//13
f 18//8 14//8 13//8
f 19//9 15//9 14//9
f 20//10 16//10 15//10
f 17//11 13//11 16//11
f 14//12 15//12 16//12
f 19//13 18//13 17//13
g cornell_box_网格
v -549.600037 0.000042 -559.199951
v -552.799988 0.000000 0.000083
v -0.000084 0.000042 -559.200012
v 0.000000 0.000000 0.000000
v 0.000000 548.799988 0.000041
v -0.000084 548.800049 -559.199951
v -556.000061 548.800049 -559.199890
v -556.000000 548.799988 0.000125
vn -0.0000 1.0000 -0.0000
vn -0.0000 -1.0000 -0.0000
vn -0.0000 -0.0000 1.0000
vn -1.0000 -0.0000 -0.0000
vn 0.9999 0.0117 0.0057
vn 1.0000 0.0058 -0.0000
s 0
usemtl cbox_Material
f 21//14 24//14 23//14
f 26//15 28//15 27//15
f 26//16 21//16 23//16
f 21//14 22//14 24//14
f 26//15 25//15 28//15
f 26//16 27//16 21//16
usemtl cbox_red
f 27//18 22//18 21//18
f 27//19 28//19 22//19
usemtl cbox_green
f 25//17 23//17 24//17
f 25//17 26//17 23//17
